<?xml version="1.0" encoding="UTF-8"?>
<!DOCTYPE svg PUBLIC "-//W3C//DTD SVG 1.1//EN" "http://www.w3.org/Graphics/SVG/1.1/DTD/svg11.dtd">
<!-- Creator: CorelDRAW -->
<svg xmlns="http://www.w3.org/2000/svg" xml:space="preserve" width="286.771mm" height="204.853mm" style="shape-rendering:geometricPrecision; text-rendering:geometricPrecision; image-rendering:optimizeQuality; fill-rule:evenodd; clip-rule:evenodd"
viewBox="0 0 286.771 204.853">
 <defs>
  <style type="text/css">
   <![CDATA[
    .fil1 {fill:black}
    .fil0 {fill:white}
    .fil2 {fill:white;fill-rule:nonzero}
   ]]>
  </style>
 </defs>
 <g id="Layer_x0020_1">
  <metadata id="CorelCorpID_0Corel-Layer"/>
  <path class="fil0" d="M5.7448 181.399l-0.4092 0.0129c0.2288,10.9103 9.1285,19.6296 20.042,19.6296l236.425 0c10.7428,-0.2256 19.3911,-8.8868 19.6199,-19.6296l0.0129 -157.549c0,-10.9007 -8.7321,-19.8133 -19.6328,-20.042l-236.425 -0.0097c-11.0714,0 -20.042,8.9899 -20.042,20.0517l0 157.536 0.4092 0z"/>
  <path class="fil1" d="M15.9656 181.399l-0.3995 0c-0.0097,0.1386 -0.0097,0.2739 -0.0097,0.4092 0,5.1942 4.0342,9.4121 9.0028,9.4121 0.2739,0 0.5445,-0.0097 0.8184,-0.0323l0 0.0323 236.415 0 0 -0.0097c0.1354,0.0097 0.2707,0.0097 0.4093,0.0097 4.9653,0 9.0027,-4.2179 9.0027,-9.4121 0,-0.1353 0,-0.2706 -0.0128,-0.4092l0.4221 0 0 -157.536 -0.4447 0c0.0226,-0.2739 0.0354,-0.5478 0.0354,-0.8185 0,-5.1941 -4.0374,-9.412 -9.0027,-9.412 -0.1386,0 -0.2739,0.0097 -0.4093,0.0097l0 -0.0097 -236.415 0 0 0.0451c-0.2739,-0.0225 -0.5445,-0.0451 -0.8184,-0.0451 -4.9686,0 -9.0028,4.2179 -9.0028,9.412 0,0.2707 0.0097,0.5446 0.0322,0.8185l-0.0322 0 0 157.536 0.4092 0z"/>
  <path class="fil2" d="M101.639 51.1824l23.2966 0 0 72.1974 15.5393 0 0 16.963 -15.5393 0 0 20.7191 -19.2706 0 0 -20.7191 -57.2473 0 0 -20.4244 0.2946 -0.5646 0.5646 -0.2946c1.0065,-1.7184 2.0621,-3.0685 3.1668,-4.0259l0.2945 -0.8592 0.8592 -0.5892c0.2455,-0.5646 0.5401,-1.1047 0.9083,-1.5711 0.3437,-0.491 0.7119,-0.9083 1.1047,-1.3011l0.5646 -0.8592 0.5892 -0.5646 0.2946 -0.5892c0.761,-0.761 1.3256,-1.522 1.7184,-2.3075l0.5646 -0.5647 2.013 -2.5776 0.5892 -0.8837 0.5646 -0.5646 0.5891 -0.8592 0.2701 -0.5892 1.1538 -1.1292c0.6382,-1.0065 1.2519,-1.9148 1.8656,-2.6758 0.6383,-0.761 1.252,-1.3993 1.8903,-1.9394l1.1292 -2.0129 1.4484 -1.4239 0.5646 -1.1537 0.5892 -0.2946 0.2946 -0.8592 0.5646 -0.2946 0.2946 -0.5646 2.8721 -3.756 1.1538 -1.7184 1.1538 -1.1538c0.6628,-1.1046 1.4238,-2.062 2.283,-2.8721l0.2946 -0.8592c1.0065,-0.9574 1.7675,-1.9148 2.3076,-2.8722l0.5646 -0.8592 0.5892 -0.2946c0.761,-1.3011 1.522,-2.2585 2.3075,-2.8722l0.8592 -1.4484 1.1538 -1.4238 0.8592 -0.8837c0.5646,-1.1047 1.252,-1.9639 2.013,-2.5776l0.5646 -0.8592 0.5892 -1.1538 2.5776 -2.8722 0.2946 -0.8592 0.8592 -0.5892 0.2945 -0.8592 1.1538 -1.1537 0.2701 -0.5647 0.5891 -0.5891c0.5156,-0.8101 1.0311,-1.522 1.5466,-2.1603 0.491,-0.6137 0.9328,-1.1292 1.3256,-1.5711zm2.8722 24.1558c-0.761,1.5957 -1.7184,2.8231 -2.8722,3.7559l-1.1538 2.013c-0.7119,0.7119 -1.1783,1.2765 -1.4238,1.7184l-1.4484 1.4238 -0.8592 1.743 -1.4483 1.4238 -3.4368 4.9097 -0.5892 0.2701c-1.0065,1.7429 -2.0621,3.0685 -3.1668,4.0259l-0.27 0.5892 -2.3076 3.1668 -0.5646 0.5646 -3.4613 4.6151 -3.1668 4.026 -1.1538 1.7184 -0.8592 0.8592 -0.5646 0.8592 -0.8837 1.1538 -0.5647 0.8592 -0.5646 0.5891 -2.8967 3.4368 -0.27 0.5892 -2.8968 3.7314 38.2713 0 0 -46.1023c0,-1.3256 -0.0982,-2.4548 -0.2946,-3.3631l-1.1538 1.4238zm124.879 4.6151c0.1964,1.2275 0.3191,2.4794 0.4173,3.7314 0.0982,1.252 0.1473,2.4549 0.1473,3.6578 0,5.1306 -0.8592,10.0649 -2.5776,14.7537l-0.5892 0.8592 -0.2946 0.8592 -0.8592 2.3075 -0.5646 0.5646 -2.6021 4.9098 -0.8592 0.5646 -0.2701 0.8592 -0.5891 0.8592 -0.5646 0.5891 -0.5892 0.8592 -2.5776 2.3076c-0.1964,0.3191 -0.3928,0.5155 -0.5892,0.5646l-0.27 0.5892c-2.013,2.4303 -3.8541,4.2714 -5.4743,5.4498l-0.5647 0.8837 -0.8837 0.5646c-0.1719,0.3437 -0.3682,0.5156 -0.5646,0.5647l-3.1668 3.4613 -0.8592 0.2946c-0.9574,1.2029 -1.9148,2.0621 -2.8722,2.5776 -0.6873,0.8101 -1.3502,1.3993 -2.013,1.7429 -0.8592,1.0065 -1.7429,1.6693 -2.6021,2.013l-0.5646 0.8592 -0.8592 0.2701c-0.2455,0.3436 -0.5401,0.54 -0.8592,0.5891l-0.5892 0.8592 -2.5776 1.4484c-0.9574,0.8101 -1.8657,1.5466 -2.6758,2.1848 -0.8101,0.6383 -1.5466,1.1538 -2.2339,1.5466l43.1564 0 0 16.9631 -73.0566 0 0 -16.9631 1.1538 -0.8838 6.0389 -3.1422 0.8592 -0.8837 1.1538 -0.5647c0.9083,-0.761 1.8657,-1.3501 2.8722,-1.7184l0.8592 -0.8837 1.7184 -1.1292 0.5892 -0.5892 0.5646 -0.2946c0.491,-0.3191 0.9083,-0.6382 1.3011,-0.9328 0.3927,-0.2701 0.7119,-0.5401 1.0065,-0.7856l0.8592 -0.2946c0.2454,-0.3191 0.54,-0.5155 0.8592,-0.5646l0.5891 -0.8592 2.013 -1.1538 0.27 -0.5646 0.5892 -0.2946 3.7314 -2.8722 0.8592 -0.8837 1.7429 -1.1292c0.1719,-0.3437 0.3683,-0.5401 0.5647,-0.5892 0.1963,-0.1964 0.3682,-0.2946 0.5155,-0.2946l0.0736 0 0.5646 -0.8592c1.4484,-1.1047 2.5776,-2.1603 3.4614,-3.1668 12.4952,-9.1566 18.7551,-20.0807 18.7551,-32.7723 0,-3.6087 -0.5155,-7.34 -1.522,-11.2433l-2.013 -2.8722c-4.3942,-3.5349 -8.8866,-5.3024 -13.4281,-5.3024 -2.8476,0 -5.7443,0.7119 -8.7147,2.1357 -6.6036,3.1667 -9.9176,8.7147 -9.9176,16.6194 0,1.6447 0.1473,3.3877 0.4418,5.2534l-18.4114 0c-0.0491,-0.5646 -0.0736,-1.1293 -0.0736,-1.6448l0 -1.7429c0,-22.3392 11.145,-34.8345 33.4351,-37.4612l1.8657 0c21.9219,0 34.3435,10.0649 37.2648,30.2193z"/>
 </g>
</svg>
